<?xml version="1.0" encoding="iso-8859-1"?>
<!-- Generator: Adobe Illustrator 19.0.0, SVG Export Plug-In . SVG Version: 6.00 Build 0)  -->
<svg version="1.1" id="Capa_1" xmlns="http://www.w3.org/2000/svg" xmlns:xlink="http://www.w3.org/1999/xlink" x="0px" y="0px"
	 viewBox="0 0 512 512" style="enable-background:new 0 0 512 512;" xml:space="preserve">
<g>
	<g>
		<path d="M384,76.8H128c-14.138,0-25.6,11.462-25.6,25.6v366.933c0,23.564,19.102,42.667,42.667,42.667h221.867
			c23.564,0,42.667-19.102,42.667-42.667V102.4C409.6,88.262,398.138,76.8,384,76.8z M392.533,469.333
			c0,14.138-11.461,25.6-25.6,25.6H145.067c-14.138,0-25.6-11.461-25.6-25.6V102.4c0-4.713,3.82-8.533,8.533-8.533h256
			c4.713,0,8.533,3.82,8.533,8.533V469.333z"/>
	</g>
</g>
<g>
	<g>
		<path d="M405.333,138.496c-23.517-12.885-49.988-19.415-76.8-18.944c-26.804-0.497-53.275,6.003-76.8,18.859
			c-20.931,11.355-44.459,17.061-68.267,16.555c-23.807,0.506-47.336-5.199-68.267-16.555c-0.47-0.342-0.975-0.635-1.505-0.875
			c-4.295-1.941-9.349-0.033-11.29,4.262c-1.941,4.295-0.033,9.349,4.262,11.29c23.525,12.856,49.996,19.356,76.8,18.859
			c26.797,0.523,53.267-5.947,76.8-18.773c20.931-11.355,44.459-17.061,68.267-16.555c23.807-0.506,47.336,5.199,68.267,16.555
			c0.47,0.342,0.975,0.635,1.505,0.875c4.295,1.941,9.349,0.033,11.29-4.262C411.537,145.492,409.628,140.437,405.333,138.496z"/>
	</g>
</g>
<g>
	<g>
		<path d="M366.934,0H145.067C121.503,0,102.4,19.103,102.4,42.667v25.6c0,14.138,11.461,25.6,25.6,25.6h256
			c14.138,0,25.6-11.462,25.6-25.6v-25.6C409.6,19.103,390.497,0,366.934,0z M392.535,68.267h-0.001c0,4.713-3.82,8.533-8.533,8.533
			H128c-4.713,0-8.533-3.82-8.533-8.533v-25.6c0-14.138,11.461-25.6,25.6-25.6h221.867c14.138,0,25.6,11.462,25.6,25.6V68.267z"/>
	</g>
</g>
<g>
	<g>
		<path d="M153.6,51.2c-4.713,0-8.533,3.82-8.533,8.533v25.6c0,4.713,3.821,8.533,8.533,8.533c4.713,0,8.533-3.821,8.533-8.533
			v-25.6C162.133,55.021,158.313,51.2,153.6,51.2z"/>
	</g>
</g>
<g>
	<g>
		<path d="M187.733,51.2c-4.713,0-8.533,3.82-8.533,8.533v25.6c0,4.713,3.82,8.533,8.533,8.533c4.713,0,8.533-3.821,8.533-8.533
			v-25.6C196.267,55.021,192.446,51.2,187.733,51.2z"/>
	</g>
</g>
<g>
	<g>
		<path d="M221.867,51.2c-4.713,0-8.533,3.82-8.533,8.533v25.6c0,4.713,3.82,8.533,8.533,8.533s8.533-3.821,8.533-8.533v-25.6
			C230.4,55.021,226.58,51.2,221.867,51.2z"/>
	</g>
</g>
<g>
	<g>
		<path d="M256,51.2c-4.713,0-8.533,3.82-8.533,8.533v25.6c0,4.713,3.82,8.533,8.533,8.533s8.533-3.821,8.533-8.533v-25.6
			C264.533,55.021,260.713,51.2,256,51.2z"/>
	</g>
</g>
<g>
	<g>
		<path d="M290.133,51.2c-4.713,0-8.533,3.82-8.533,8.533v25.6c0,4.713,3.82,8.533,8.533,8.533c4.713,0,8.533-3.821,8.533-8.533
			v-25.6C298.667,55.021,294.846,51.2,290.133,51.2z"/>
	</g>
</g>
<g>
	<g>
		<path d="M324.267,51.2c-4.713,0-8.533,3.82-8.533,8.533v25.6c0,4.713,3.82,8.533,8.533,8.533c4.713,0,8.533-3.821,8.533-8.533
			v-25.6C332.8,55.021,328.979,51.2,324.267,51.2z"/>
	</g>
</g>
<g>
	<g>
		<path d="M358.4,51.2c-4.713,0-8.533,3.82-8.533,8.533v25.6c0,4.713,3.82,8.533,8.533,8.533c4.713,0,8.533-3.821,8.533-8.533v-25.6
			C366.934,55.021,363.113,51.2,358.4,51.2z"/>
	</g>
</g>
<g>
	<g>
		<path d="M401.067,187.733H110.933c-4.713,0-8.533,3.82-8.533,8.533v230.4c0,4.713,3.82,8.533,8.533,8.533h290.133
			c4.713,0,8.533-3.82,8.533-8.533v-230.4C409.6,191.554,405.78,187.733,401.067,187.733z M392.534,418.133L392.534,418.133H119.467
			V204.8h273.067V418.133z"/>
	</g>
</g>
<g>
	<g>
		<path d="M161.451,466.091c-0.406-1.047-1.015-2.004-1.792-2.816c-0.829-0.754-1.782-1.36-2.816-1.792
			c-2.078-0.853-4.408-0.853-6.485,0c-2.144,0.776-3.832,2.464-4.608,4.608c-0.417,1.016-0.635,2.102-0.64,3.2
			c-0.023,4.713,3.778,8.552,8.491,8.576c2.268,0.013,4.448-0.877,6.059-2.475c0.751-0.831,1.357-1.783,1.792-2.816
			C162.364,470.511,162.364,468.156,161.451,466.091z"/>
	</g>
</g>
<g>
	<g>
		<path d="M193.792,463.275c-0.812-0.777-1.768-1.386-2.816-1.792c-3.178-1.336-6.847-0.629-9.301,1.792
			c-0.777,0.812-1.386,1.769-1.792,2.816c-0.417,1.016-0.635,2.102-0.64,3.2c-0.023,4.713,3.778,8.552,8.491,8.576
			c4.713,0,8.533-3.82,8.533-8.533C196.235,467.074,195.351,464.91,193.792,463.275z"/>
	</g>
</g>
<g>
	<g>
		<path d="M229.717,466.091c-0.406-1.047-1.015-2.004-1.792-2.816c-2.454-2.421-6.124-3.128-9.301-1.792
			c-1.055,0.391-2.015,1.002-2.816,1.792c-1.559,1.635-2.443,3.799-2.475,6.059c0.013,1.115,0.245,2.217,0.683,3.243
			c0.776,2.144,2.464,3.832,4.608,4.608c1.026,0.437,2.128,0.669,3.243,0.683c1.098-0.005,2.185-0.223,3.2-0.64
			C229.426,475.436,231.508,470.45,229.717,466.091z"/>
	</g>
</g>
<g>
	<g>
		<path d="M263.851,466.091c-0.406-1.047-1.015-2.004-1.792-2.816c-2.454-2.421-6.124-3.128-9.301-1.792
			c-1.034,0.432-1.987,1.038-2.816,1.792c-0.777,0.812-1.386,1.769-1.792,2.816c-0.417,1.016-0.635,2.102-0.64,3.2
			c-0.023,4.713,3.778,8.552,8.491,8.576c1.098-0.005,2.185-0.223,3.2-0.64C263.56,475.436,265.642,470.45,263.851,466.091z"/>
	</g>
</g>
<g>
	<g>
		<path d="M297.984,466.091c-0.425-1.037-1.051-1.981-1.841-2.776c-3.321-3.343-8.724-3.361-12.068-0.04
			c-0.777,0.812-1.386,1.769-1.792,2.816c-0.902,2.068-0.902,4.418,0,6.485c0.434,1.033,1.04,1.986,1.792,2.816
			c1.61,1.597,3.79,2.488,6.059,2.475c1.098-0.005,2.185-0.223,3.2-0.64C297.693,475.436,299.775,470.45,297.984,466.091z"/>
	</g>
</g>
<g>
	<g>
		<path d="M332.117,466.091c-0.864-2.028-2.479-3.643-4.506-4.506c-4.336-1.847-9.348,0.171-11.195,4.506
			c-0.417,1.016-0.635,2.102-0.64,3.2c-0.023,4.713,3.778,8.552,8.491,8.576c4.713,0,8.533-3.82,8.533-8.533
			C332.829,468.214,332.595,467.103,332.117,466.091z"/>
	</g>
</g>
<g>
	<g>
		<path d="M364.46,463.275c-0.803-0.788-1.762-1.399-2.816-1.792c-3.178-1.336-6.847-0.629-9.301,1.792
			c-0.777,0.812-1.386,1.769-1.792,2.816c-0.417,1.016-0.635,2.102-0.64,3.2c-0.023,4.713,3.778,8.552,8.491,8.576
			c2.268,0.013,4.448-0.877,6.059-2.475c0.751-0.831,1.357-1.783,1.792-2.816c0.437-1.026,0.669-2.128,0.683-3.243
			C366.902,467.074,366.018,464.91,364.46,463.275z"/>
	</g>
</g>
<g>
	<g>
		<path d="M256,230.4c-47.128,0-85.333,38.205-85.333,85.333c0,47.128,38.205,85.333,85.333,85.333s85.333-38.205,85.333-85.333
			C341.333,268.605,303.128,230.4,256,230.4z M256,384c-37.703,0-68.267-30.564-68.267-68.267s30.564-68.267,68.267-68.267
			s68.267,30.564,68.267,68.267S293.703,384,256,384z"/>
	</g>
</g>
<g>
	<g>
		<path d="M256,230.4c-4.713,0-8.533,3.82-8.533,8.533v153.6c0,4.713,3.82,8.533,8.533,8.533s8.533-3.821,8.533-8.533v-153.6
			C264.533,234.221,260.713,230.4,256,230.4z"/>
	</g>
</g>
<g>
	<g>
		<path d="M316.331,256.334c-3.065-3.58-8.452-3.996-12.032-0.931l-108.63,108.544c-1.628,1.614-2.537,3.816-2.524,6.108
			c0.027,4.713,3.87,8.511,8.583,8.484c2.239-0.009,4.384-0.898,5.973-2.475L316.33,267.435
			C319.067,264.24,319.067,259.528,316.331,256.334z"/>
	</g>
</g>
<g>
	<g>
		<path d="M332.8,307.2H179.2c-4.713,0-8.533,3.82-8.533,8.533c0,4.713,3.82,8.533,8.533,8.533h153.6
			c4.713,0,8.533-3.82,8.533-8.533C341.333,311.02,337.513,307.2,332.8,307.2z"/>
	</g>
</g>
<g>
	<g>
		<path d="M316.331,364.032l-108.63-108.629c-3.195-2.736-7.906-2.736-11.101,0c-3.58,3.065-3.996,8.452-0.931,12.032
			l108.544,108.629c1.61,1.597,3.79,2.488,6.059,2.475v0.085c2.293,0.013,4.494-0.896,6.108-2.524
			C319.699,372.754,319.677,367.351,316.331,364.032z"/>
	</g>
</g>
<g>
</g>
<g>
</g>
<g>
</g>
<g>
</g>
<g>
</g>
<g>
</g>
<g>
</g>
<g>
</g>
<g>
</g>
<g>
</g>
<g>
</g>
<g>
</g>
<g>
</g>
<g>
</g>
<g>
</g>
</svg>
