<?xml version="1.0" encoding="iso-8859-1"?>
<!-- Generator: Adobe Illustrator 18.0.0, SVG Export Plug-In . SVG Version: 6.00 Build 0)  -->
<!DOCTYPE svg PUBLIC "-//W3C//DTD SVG 1.1//EN" "http://www.w3.org/Graphics/SVG/1.1/DTD/svg11.dtd">
<svg version="1.1" id="Capa_1" xmlns="http://www.w3.org/2000/svg" xmlns:xlink="http://www.w3.org/1999/xlink" x="0px" y="0px"
	 viewBox="0 0 271.975 271.975" style="enable-background:new 0 0 271.975 271.975;" xml:space="preserve">
<g>
	<path d="M135.99,0C61.005,0,0,61.004,0,135.987s61.005,135.987,135.99,135.987c74.982,0,135.984-61.004,135.984-135.987
		S210.973,0,135.99,0z M135.99,259.975C67.622,259.975,12,204.355,12,135.987S67.622,12,135.99,12
		c68.365,0,123.984,55.62,123.984,123.987S204.355,259.975,135.99,259.975z"/>
	<path d="M230.88,96.682c-0.318-14.724-6.172-28.467-16.646-38.94c-10.434-10.435-24.218-16.315-38.939-16.646
		C164.656,30.908,150.8,25.33,135.99,25.33c-14.813,0-28.672,5.578-39.31,15.766c-14.722,0.33-28.506,6.211-38.941,16.646
		c-10.474,10.474-16.327,24.217-16.646,38.94c-10.187,10.638-15.765,24.495-15.765,39.306c0,14.809,5.579,28.668,15.765,39.308
		c0.317,14.723,6.172,28.465,16.646,38.939c10.434,10.434,24.218,16.314,38.94,16.645c10.637,10.186,24.494,15.763,39.31,15.763
		c14.812,0,28.668-5.577,39.304-15.763c14.721-0.329,28.505-6.21,38.941-16.646c10.474-10.474,16.328-24.216,16.645-38.938
		c10.186-10.64,15.765-24.498,15.765-39.308C246.645,121.177,241.066,107.319,230.88,96.682z M220.734,168.473
		c-1.219,1.165-1.892,2.79-1.853,4.476c0.284,12.398-4.38,24.047-13.133,32.801c-8.477,8.477-19.758,13.145-31.764,13.145
		c-0.347,0-0.694-0.004-1.04-0.012c-1.684-0.043-3.311,0.634-4.477,1.854c-8.566,8.968-20.102,13.906-32.479,13.906
		c-12.381,0-23.918-4.939-32.484-13.906c-1.134-1.187-2.702-1.855-4.339-1.855c-0.046,0-0.092,0.001-0.138,0.002
		c-0.347,0.008-0.692,0.012-1.039,0.012c-12.007,0-23.288-4.668-31.765-13.145c-8.753-8.754-13.417-20.402-13.133-32.801
		c0.039-1.686-0.634-3.311-1.853-4.476c-8.97-8.572-13.91-20.108-13.91-32.485c0-12.377,4.939-23.913,13.909-32.482
		c1.22-1.166,1.893-2.79,1.854-4.477c-0.284-12.4,4.38-24.05,13.133-32.804c8.721-8.721,20.442-13.404,32.804-13.133
		c1.67,0.044,3.312-0.634,4.477-1.854c8.568-8.97,20.105-13.909,32.484-13.909c12.375,0,23.91,4.939,32.479,13.909
		c1.166,1.22,2.791,1.896,4.477,1.854c12.359-0.288,24.082,4.411,32.804,13.133c8.753,8.754,13.417,20.403,13.133,32.804
		c-0.039,1.687,0.634,3.311,1.854,4.477c8.97,8.568,13.909,20.104,13.909,32.482C234.645,148.364,229.704,159.9,220.734,168.473z"/>
	<path d="M152.794,79.09c1.172,1.172,2.707,1.758,4.243,1.758c1.535,0,3.07-0.586,4.242-1.757c2.344-2.343,2.344-6.142,0.001-8.485
		l-16.623-16.626c-2.343-2.343-6.141-2.344-8.485-0.001c-2.344,2.343-2.344,6.142-0.001,8.485L152.794,79.09z"/>
	<path d="M194.104,113.637c3.314,0,6-2.687,6-6V84.129c0-3.313-2.686-6-6-6s-6,2.687-6,6v23.508
		C188.104,110.95,190.79,113.637,194.104,113.637z"/>
	<path d="M209.508,136.172l-16.623,16.623c-2.344,2.343-2.344,6.142,0,8.484c1.171,1.172,2.707,1.758,4.242,1.758
		c1.535,0,3.071-0.586,4.242-1.758l16.623-16.623c2.344-2.343,2.344-6.142,0-8.484C215.65,133.828,211.85,133.828,209.508,136.172z"
		/>
	<path d="M187.846,188.104h-23.508c-3.314,0-6,2.686-6,6s2.686,6,6,6h23.508c3.313,0,6-2.686,6-6S191.159,188.104,187.846,188.104z"
		/>
	<path d="M119.18,192.885c-2.342-2.344-6.143-2.344-8.484,0c-2.344,2.343-2.344,6.142,0,8.484l16.623,16.623
		c1.171,1.172,2.707,1.758,4.242,1.758c1.535,0,3.071-0.586,4.242-1.758c2.344-2.343,2.344-6.142,0-8.484L119.18,192.885z"/>
	<path d="M77.871,158.335c-3.313,0-6,2.687-6,6v23.511c0,3.313,2.687,6,6,6s6-2.687,6-6v-23.511
		C83.871,161.021,81.185,158.335,77.871,158.335z"/>
	<path d="M113.637,77.868c0-3.313-2.687-6-6-6H84.129c-3.313,0-6,2.687-6,6c0,3.313,2.687,6,6,6h23.508
		C110.95,83.868,113.637,81.182,113.637,77.868z"/>
	<path d="M79.09,110.695c-2.342-2.344-6.142-2.344-8.484,0l-16.623,16.623c-2.344,2.343-2.344,6.142,0,8.484
		c1.171,1.172,2.707,1.758,4.242,1.758c1.535,0,3.071-0.586,4.242-1.758L79.09,119.18C81.434,116.837,81.434,113.038,79.09,110.695z
		"/>
	<path d="M185.859,135.987c0-27.498-22.371-49.869-49.869-49.869c-27.501,0-49.875,22.371-49.875,49.869
		c0,27.5,22.374,49.872,49.875,49.872C163.488,185.859,185.859,163.487,185.859,135.987z M98.115,135.987
		c0-20.881,16.99-37.869,37.875-37.869c20.881,0,37.869,16.988,37.869,37.869c0,20.883-16.988,37.872-37.869,37.872
		C115.105,173.859,98.115,156.87,98.115,135.987z"/>
</g>
<g>
</g>
<g>
</g>
<g>
</g>
<g>
</g>
<g>
</g>
<g>
</g>
<g>
</g>
<g>
</g>
<g>
</g>
<g>
</g>
<g>
</g>
<g>
</g>
<g>
</g>
<g>
</g>
<g>
</g>
</svg>
